<svg width="5" height="19" viewBox="0 0 5 19" fill="none" xmlns="http://www.w3.org/2000/svg">
<path d="M2.98561 18.5272C2.42566 18.5272 1.95185 18.3334 1.56419 17.9457C1.17653 17.5581 0.982701 17.0842 0.982701 16.5243C0.982701 15.9643 1.17653 15.4905 1.56419 15.1029C1.95185 14.7152 2.42566 14.5214 2.98561 14.5214C3.52403 14.5214 3.9763 14.7152 4.34243 15.1029C4.73009 15.4905 4.92392 15.9643 4.92392 16.5243C4.92392 17.0842 4.73009 17.5581 4.34243 17.9457C3.9763 18.3334 3.52403 18.5272 2.98561 18.5272ZM2.98561 4.70064C2.42566 4.70064 1.95185 4.50681 1.56419 4.11915C1.17653 3.73149 0.982701 3.25768 0.982701 2.69773C0.982701 2.13777 1.17653 1.66397 1.56419 1.27631C1.95185 0.888647 2.42566 0.694817 2.98561 0.694817C3.52403 0.694817 3.9763 0.888647 4.34243 1.27631C4.73009 1.66397 4.92392 2.13777 4.92392 2.69773C4.92392 3.25768 4.73009 3.73149 4.34243 4.11915C3.9763 4.50681 3.52403 4.70064 2.98561 4.70064Z" fill="white"/>
</svg>
